G04 #@! TF.FileFunction,Copper,L1,Top,Signal*
%FSLAX46Y46*%
G04 Gerber Fmt 4.6, Leading zero omitted, Abs format (unit mm)*
G04 Created by KiCad (PCBNEW 4.0.7-e2-6376~58~ubuntu16.04.1) date Wed Jan 10 15:30:26 2018*
%MOMM*%
%LPD*%
G01*
G04 APERTURE LIST*
%ADD10C,0.100000*%
%ADD11R,1.778000X1.778000*%
%ADD12C,1.778000*%
%ADD13C,3.048000*%
%ADD14R,1.651000X1.651000*%
%ADD15C,1.651000*%
%ADD16C,3.302000*%
%ADD17C,1.524000*%
%ADD18C,0.304800*%
G04 APERTURE END LIST*
D10*
D11*
X121920000Y-91440000D03*
D12*
X121920000Y-93980000D03*
X119380000Y-91440000D03*
X119380000Y-93980000D03*
X116840000Y-91440000D03*
X116840000Y-93980000D03*
X114300000Y-91440000D03*
X114300000Y-93980000D03*
X111760000Y-91440000D03*
X111760000Y-93980000D03*
D11*
X146050000Y-91440000D03*
D12*
X146050000Y-93980000D03*
X143510000Y-91440000D03*
X143510000Y-93980000D03*
X140970000Y-91440000D03*
X140970000Y-93980000D03*
D13*
X64897000Y-58420000D03*
X75057000Y-58420000D03*
D14*
X69977000Y-63500000D03*
D15*
X67437000Y-63500000D03*
D13*
X64897000Y-68580000D03*
X90297000Y-58420000D03*
X100457000Y-58420000D03*
D14*
X95377000Y-63500000D03*
D15*
X92837000Y-63500000D03*
D13*
X90297000Y-68580000D03*
X115697000Y-58420000D03*
X125857000Y-58420000D03*
D14*
X120777000Y-63500000D03*
D15*
X118237000Y-63500000D03*
D13*
X115697000Y-68580000D03*
X141097000Y-58420000D03*
X151257000Y-58420000D03*
D14*
X146177000Y-63500000D03*
D15*
X143637000Y-63500000D03*
D13*
X141097000Y-68580000D03*
D16*
X53975000Y-53975000D03*
X161925000Y-53975000D03*
X53975000Y-98425000D03*
X161925000Y-98425000D03*
D17*
X54864000Y-93472000D03*
X57404000Y-93472000D03*
X59944000Y-93472000D03*
X62484000Y-93472000D03*
X65024000Y-93472000D03*
X67564000Y-93472000D03*
X70104000Y-93472000D03*
X72644000Y-93472000D03*
X75184000Y-93472000D03*
X77724000Y-93472000D03*
X80264000Y-93472000D03*
X82804000Y-93472000D03*
X85344000Y-93472000D03*
X87884000Y-93472000D03*
X87884000Y-90932000D03*
X87884000Y-88392000D03*
X87884000Y-85852000D03*
X87884000Y-83312000D03*
X87884000Y-80772000D03*
X87884000Y-78232000D03*
X85344000Y-78232000D03*
X82804000Y-78232000D03*
X80264000Y-78232000D03*
X77724000Y-78232000D03*
X75184000Y-78232000D03*
X72644000Y-78232000D03*
X70104000Y-78232000D03*
X67564000Y-78232000D03*
X65024000Y-78232000D03*
X62484000Y-78232000D03*
X59944000Y-78232000D03*
X57404000Y-78232000D03*
X54864000Y-78232000D03*
X70104000Y-85852000D03*
X72644000Y-85852000D03*
X75184000Y-85852000D03*
X77724000Y-85852000D03*
X80264000Y-85852000D03*
X82804000Y-85852000D03*
X85344000Y-85852000D03*
X85344000Y-83312000D03*
X82804000Y-83312000D03*
X80264000Y-83312000D03*
X77724000Y-83312000D03*
X75184000Y-83312000D03*
X72644000Y-83312000D03*
X70104000Y-83312000D03*
X67564000Y-80772000D03*
X65024000Y-80772000D03*
X62484000Y-80772000D03*
X57404000Y-80772000D03*
D18*
X120725900Y-91066800D02*
X120725900Y-91440000D01*
X109161100Y-79502000D02*
X120725900Y-91066800D01*
X56134000Y-79502000D02*
X109161100Y-79502000D01*
X54864000Y-78232000D02*
X56134000Y-79502000D01*
X121920000Y-91440000D02*
X120725900Y-91440000D01*
X68567700Y-64630700D02*
X67437000Y-63500000D01*
X91706300Y-64630700D02*
X68567700Y-64630700D01*
X92837000Y-63500000D02*
X91706300Y-64630700D01*
X117106400Y-64630600D02*
X118237000Y-63500000D01*
X93967600Y-64630600D02*
X117106400Y-64630600D01*
X92837000Y-63500000D02*
X93967600Y-64630600D01*
X123117100Y-92782900D02*
X121920000Y-93980000D01*
X123117100Y-64630700D02*
X123117100Y-92782900D01*
X119367700Y-64630700D02*
X123117100Y-64630700D01*
X118237000Y-63500000D02*
X119367700Y-64630700D01*
X142506300Y-64630700D02*
X143637000Y-63500000D01*
X123117100Y-64630700D02*
X142506300Y-64630700D01*
X117720500Y-89780500D02*
X119380000Y-91440000D01*
X86495500Y-89780500D02*
X117720500Y-89780500D01*
X82804000Y-93472000D02*
X86495500Y-89780500D01*
X118110000Y-92710000D02*
X119380000Y-93980000D01*
X88646000Y-92710000D02*
X118110000Y-92710000D01*
X87884000Y-93472000D02*
X88646000Y-92710000D01*
X115638100Y-90238100D02*
X116840000Y-91440000D01*
X90107900Y-90238100D02*
X115638100Y-90238100D01*
X88169600Y-92176400D02*
X90107900Y-90238100D01*
X86639600Y-92176400D02*
X88169600Y-92176400D01*
X85344000Y-93472000D02*
X86639600Y-92176400D01*
X144852600Y-95177400D02*
X146050000Y-93980000D01*
X79429400Y-95177400D02*
X144852600Y-95177400D01*
X77724000Y-93472000D02*
X79429400Y-95177400D01*
M02*
