G04 #@! TF.FileFunction,Copper,L1,Top,Signal*
%FSLAX46Y46*%
G04 Gerber Fmt 4.6, Leading zero omitted, Abs format (unit mm)*
G04 Created by KiCad (PCBNEW 4.0.7-e2-6376~58~ubuntu16.04.1) date Wed Jan 17 11:07:31 2018*
%MOMM*%
%LPD*%
G01*
G04 APERTURE LIST*
%ADD10C,0.100000*%
%ADD11R,1.778000X1.778000*%
%ADD12C,1.778000*%
%ADD13C,3.048000*%
%ADD14R,1.651000X1.651000*%
%ADD15C,1.651000*%
%ADD16C,3.302000*%
%ADD17C,1.524000*%
%ADD18C,0.304800*%
G04 APERTURE END LIST*
D10*
D11*
X128270000Y-91440000D03*
D12*
X128270000Y-93980000D03*
X125730000Y-91440000D03*
X125730000Y-93980000D03*
X123190000Y-91440000D03*
X123190000Y-93980000D03*
X120650000Y-91440000D03*
X120650000Y-93980000D03*
X118110000Y-91440000D03*
X118110000Y-93980000D03*
D11*
X149606000Y-91440000D03*
D12*
X149606000Y-93980000D03*
X147066000Y-91440000D03*
X147066000Y-93980000D03*
X144526000Y-91440000D03*
X144526000Y-93980000D03*
D13*
X64897000Y-58420000D03*
X75057000Y-58420000D03*
D14*
X69977000Y-63500000D03*
D15*
X67437000Y-63500000D03*
D13*
X64897000Y-68580000D03*
X90297000Y-58420000D03*
X100457000Y-58420000D03*
D14*
X95377000Y-63500000D03*
D15*
X92837000Y-63500000D03*
D13*
X90297000Y-68580000D03*
X115697000Y-58420000D03*
X125857000Y-58420000D03*
D14*
X120777000Y-63500000D03*
D15*
X118237000Y-63500000D03*
D13*
X115697000Y-68580000D03*
X141097000Y-58420000D03*
X151257000Y-58420000D03*
D14*
X146177000Y-63500000D03*
D15*
X143637000Y-63500000D03*
D13*
X141097000Y-68580000D03*
D16*
X53975000Y-53975000D03*
X161925000Y-53975000D03*
X53975000Y-98425000D03*
X161925000Y-98425000D03*
D17*
X54864000Y-93472000D03*
X57404000Y-93472000D03*
X59944000Y-93472000D03*
X62484000Y-93472000D03*
X65024000Y-93472000D03*
X67564000Y-93472000D03*
X70104000Y-93472000D03*
X72644000Y-93472000D03*
X75184000Y-93472000D03*
X77724000Y-93472000D03*
X80264000Y-93472000D03*
X82804000Y-93472000D03*
X85344000Y-93472000D03*
X87884000Y-93472000D03*
X87884000Y-90932000D03*
X87884000Y-88392000D03*
X87884000Y-85852000D03*
X87884000Y-83312000D03*
X87884000Y-80772000D03*
X87884000Y-78232000D03*
X85344000Y-78232000D03*
X82804000Y-78232000D03*
X80264000Y-78232000D03*
X77724000Y-78232000D03*
X75184000Y-78232000D03*
X72644000Y-78232000D03*
X70104000Y-78232000D03*
X67564000Y-78232000D03*
X65024000Y-78232000D03*
X62484000Y-78232000D03*
X59944000Y-78232000D03*
X57404000Y-78232000D03*
X54864000Y-78232000D03*
X70104000Y-85852000D03*
X72644000Y-85852000D03*
X75184000Y-85852000D03*
X77724000Y-85852000D03*
X80264000Y-85852000D03*
X82804000Y-85852000D03*
X85344000Y-85852000D03*
X85344000Y-83312000D03*
X82804000Y-83312000D03*
X80264000Y-83312000D03*
X77724000Y-83312000D03*
X75184000Y-83312000D03*
X72644000Y-83312000D03*
X70104000Y-83312000D03*
X67564000Y-80772000D03*
X65024000Y-80772000D03*
X62484000Y-80772000D03*
X57404000Y-80772000D03*
D14*
X97282000Y-98298000D03*
D15*
X99822000Y-98298000D03*
X102362000Y-98298000D03*
D18*
X127075900Y-91066800D02*
X127075900Y-91440000D01*
X117892200Y-81883100D02*
X127075900Y-91066800D01*
X87318500Y-81883100D02*
X117892200Y-81883100D01*
X84937400Y-79502000D02*
X87318500Y-81883100D01*
X56134000Y-79502000D02*
X84937400Y-79502000D01*
X54864000Y-78232000D02*
X56134000Y-79502000D01*
X128270000Y-91440000D02*
X127075900Y-91440000D01*
X125082600Y-97167400D02*
X128270000Y-93980000D01*
X99260400Y-97167400D02*
X125082600Y-97167400D01*
X98412600Y-98015200D02*
X99260400Y-97167400D01*
X98412600Y-98298000D02*
X98412600Y-98015200D01*
X97282000Y-98298000D02*
X98412600Y-98298000D01*
X142506400Y-64630600D02*
X143637000Y-63500000D01*
X119367600Y-64630600D02*
X142506400Y-64630600D01*
X118237000Y-63500000D02*
X119367600Y-64630600D01*
X68567700Y-64630700D02*
X67437000Y-63500000D01*
X91706300Y-64630700D02*
X68567700Y-64630700D01*
X92837000Y-63500000D02*
X91706300Y-64630700D01*
X117106400Y-64630600D02*
X118237000Y-63500000D01*
X93967600Y-64630600D02*
X117106400Y-64630600D01*
X92837000Y-63500000D02*
X93967600Y-64630600D01*
X124070500Y-89780500D02*
X125730000Y-91440000D01*
X86495500Y-89780500D02*
X124070500Y-89780500D01*
X82804000Y-93472000D02*
X86495500Y-89780500D01*
X88573500Y-92782500D02*
X87884000Y-93472000D01*
X124532500Y-92782500D02*
X88573500Y-92782500D01*
X125730000Y-93980000D02*
X124532500Y-92782500D01*
X121988100Y-90238100D02*
X123190000Y-91440000D01*
X115285900Y-90238100D02*
X121988100Y-90238100D01*
X113347600Y-92176400D02*
X115285900Y-90238100D01*
X86639600Y-92176400D02*
X113347600Y-92176400D01*
X85344000Y-93472000D02*
X86639600Y-92176400D01*
X148336000Y-92710000D02*
X149606000Y-93980000D01*
X127819000Y-92710000D02*
X148336000Y-92710000D01*
X127075800Y-93453200D02*
X127819000Y-92710000D01*
X127075800Y-94408800D02*
X127075800Y-93453200D01*
X126273300Y-95211300D02*
X127075800Y-94408800D01*
X79463300Y-95211300D02*
X126273300Y-95211300D01*
X77724000Y-93472000D02*
X79463300Y-95211300D01*
X145046400Y-63782600D02*
X145046400Y-63500000D01*
X142547900Y-66281100D02*
X145046400Y-63782600D01*
X102374900Y-66281100D02*
X142547900Y-66281100D01*
X87884000Y-80772000D02*
X102374900Y-66281100D01*
X146177000Y-63500000D02*
X145046400Y-63500000D01*
M02*
