G04 #@! TF.FileFunction,Soldermask,Bot*
%FSLAX46Y46*%
G04 Gerber Fmt 4.6, Leading zero omitted, Abs format (unit mm)*
G04 Created by KiCad (PCBNEW 4.0.7-e2-6376~58~ubuntu16.04.1) date Wed Jan 17 11:07:31 2018*
%MOMM*%
%LPD*%
G01*
G04 APERTURE LIST*
%ADD10C,0.100000*%
%ADD11R,1.879600X1.879600*%
%ADD12C,1.879600*%
%ADD13C,3.149600*%
%ADD14R,1.752600X1.752600*%
%ADD15C,1.752600*%
%ADD16C,3.403600*%
%ADD17C,1.625600*%
G04 APERTURE END LIST*
D10*
D11*
X128270000Y-91440000D03*
D12*
X128270000Y-93980000D03*
X125730000Y-91440000D03*
X125730000Y-93980000D03*
X123190000Y-91440000D03*
X123190000Y-93980000D03*
X120650000Y-91440000D03*
X120650000Y-93980000D03*
X118110000Y-91440000D03*
X118110000Y-93980000D03*
D11*
X149606000Y-91440000D03*
D12*
X149606000Y-93980000D03*
X147066000Y-91440000D03*
X147066000Y-93980000D03*
X144526000Y-91440000D03*
X144526000Y-93980000D03*
D13*
X64897000Y-58420000D03*
X75057000Y-58420000D03*
D14*
X69977000Y-63500000D03*
D15*
X67437000Y-63500000D03*
D13*
X64897000Y-68580000D03*
X90297000Y-58420000D03*
X100457000Y-58420000D03*
D14*
X95377000Y-63500000D03*
D15*
X92837000Y-63500000D03*
D13*
X90297000Y-68580000D03*
X115697000Y-58420000D03*
X125857000Y-58420000D03*
D14*
X120777000Y-63500000D03*
D15*
X118237000Y-63500000D03*
D13*
X115697000Y-68580000D03*
X141097000Y-58420000D03*
X151257000Y-58420000D03*
D14*
X146177000Y-63500000D03*
D15*
X143637000Y-63500000D03*
D13*
X141097000Y-68580000D03*
D16*
X53975000Y-53975000D03*
X161925000Y-53975000D03*
X53975000Y-98425000D03*
X161925000Y-98425000D03*
D17*
X54864000Y-93472000D03*
X57404000Y-93472000D03*
X59944000Y-93472000D03*
X62484000Y-93472000D03*
X65024000Y-93472000D03*
X67564000Y-93472000D03*
X70104000Y-93472000D03*
X72644000Y-93472000D03*
X75184000Y-93472000D03*
X77724000Y-93472000D03*
X80264000Y-93472000D03*
X82804000Y-93472000D03*
X85344000Y-93472000D03*
X87884000Y-93472000D03*
X87884000Y-90932000D03*
X87884000Y-88392000D03*
X87884000Y-85852000D03*
X87884000Y-83312000D03*
X87884000Y-80772000D03*
X87884000Y-78232000D03*
X85344000Y-78232000D03*
X82804000Y-78232000D03*
X80264000Y-78232000D03*
X77724000Y-78232000D03*
X75184000Y-78232000D03*
X72644000Y-78232000D03*
X70104000Y-78232000D03*
X67564000Y-78232000D03*
X65024000Y-78232000D03*
X62484000Y-78232000D03*
X59944000Y-78232000D03*
X57404000Y-78232000D03*
X54864000Y-78232000D03*
X70104000Y-85852000D03*
X72644000Y-85852000D03*
X75184000Y-85852000D03*
X77724000Y-85852000D03*
X80264000Y-85852000D03*
X82804000Y-85852000D03*
X85344000Y-85852000D03*
X85344000Y-83312000D03*
X82804000Y-83312000D03*
X80264000Y-83312000D03*
X77724000Y-83312000D03*
X75184000Y-83312000D03*
X72644000Y-83312000D03*
X70104000Y-83312000D03*
X67564000Y-80772000D03*
X65024000Y-80772000D03*
X62484000Y-80772000D03*
X57404000Y-80772000D03*
D14*
X97282000Y-98298000D03*
D15*
X99822000Y-98298000D03*
X102362000Y-98298000D03*
M02*
