G04 #@! TF.FileFunction,Legend,Top*
%FSLAX46Y46*%
G04 Gerber Fmt 4.6, Leading zero omitted, Abs format (unit mm)*
G04 Created by KiCad (PCBNEW 4.0.7-e2-6376~58~ubuntu16.04.1) date Wed Jan 17 11:07:31 2018*
%MOMM*%
%LPD*%
G01*
G04 APERTURE LIST*
%ADD10C,0.100000*%
%ADD11C,0.300000*%
%ADD12C,0.200000*%
%ADD13C,0.381000*%
%ADD14C,0.203200*%
%ADD15C,0.304800*%
%ADD16C,0.254000*%
%ADD17C,0.150000*%
G04 APERTURE END LIST*
D10*
D11*
X92714858Y-94230000D02*
X93429144Y-94230000D01*
X92572001Y-94658571D02*
X93072001Y-93158571D01*
X93572001Y-94658571D01*
X94072001Y-93658571D02*
X94072001Y-94658571D01*
X94072001Y-93801429D02*
X94143429Y-93730000D01*
X94286287Y-93658571D01*
X94500572Y-93658571D01*
X94643429Y-93730000D01*
X94714858Y-93872857D01*
X94714858Y-94658571D01*
X96072001Y-93658571D02*
X96072001Y-94872857D01*
X96000572Y-95015714D01*
X95929144Y-95087143D01*
X95786287Y-95158571D01*
X95572001Y-95158571D01*
X95429144Y-95087143D01*
X96072001Y-94587143D02*
X95929144Y-94658571D01*
X95643430Y-94658571D01*
X95500572Y-94587143D01*
X95429144Y-94515714D01*
X95357715Y-94372857D01*
X95357715Y-93944286D01*
X95429144Y-93801429D01*
X95500572Y-93730000D01*
X95643430Y-93658571D01*
X95929144Y-93658571D01*
X96072001Y-93730000D01*
X97000573Y-94658571D02*
X96857715Y-94587143D01*
X96786287Y-94444286D01*
X96786287Y-93158571D01*
X98143429Y-94587143D02*
X98000572Y-94658571D01*
X97714858Y-94658571D01*
X97572001Y-94587143D01*
X97500572Y-94444286D01*
X97500572Y-93872857D01*
X97572001Y-93730000D01*
X97714858Y-93658571D01*
X98000572Y-93658571D01*
X98143429Y-93730000D01*
X98214858Y-93872857D01*
X98214858Y-94015714D01*
X97500572Y-94158571D01*
X99929143Y-94587143D02*
X100143429Y-94658571D01*
X100500572Y-94658571D01*
X100643429Y-94587143D01*
X100714858Y-94515714D01*
X100786286Y-94372857D01*
X100786286Y-94230000D01*
X100714858Y-94087143D01*
X100643429Y-94015714D01*
X100500572Y-93944286D01*
X100214858Y-93872857D01*
X100072000Y-93801429D01*
X100000572Y-93730000D01*
X99929143Y-93587143D01*
X99929143Y-93444286D01*
X100000572Y-93301429D01*
X100072000Y-93230000D01*
X100214858Y-93158571D01*
X100572000Y-93158571D01*
X100786286Y-93230000D01*
X102000571Y-94587143D02*
X101857714Y-94658571D01*
X101572000Y-94658571D01*
X101429143Y-94587143D01*
X101357714Y-94444286D01*
X101357714Y-93872857D01*
X101429143Y-93730000D01*
X101572000Y-93658571D01*
X101857714Y-93658571D01*
X102000571Y-93730000D01*
X102072000Y-93872857D01*
X102072000Y-94015714D01*
X101357714Y-94158571D01*
X102714857Y-93658571D02*
X102714857Y-94658571D01*
X102714857Y-93801429D02*
X102786285Y-93730000D01*
X102929143Y-93658571D01*
X103143428Y-93658571D01*
X103286285Y-93730000D01*
X103357714Y-93872857D01*
X103357714Y-94658571D01*
X104000571Y-94587143D02*
X104143428Y-94658571D01*
X104429143Y-94658571D01*
X104572000Y-94587143D01*
X104643428Y-94444286D01*
X104643428Y-94372857D01*
X104572000Y-94230000D01*
X104429143Y-94158571D01*
X104214857Y-94158571D01*
X104072000Y-94087143D01*
X104000571Y-93944286D01*
X104000571Y-93872857D01*
X104072000Y-93730000D01*
X104214857Y-93658571D01*
X104429143Y-93658571D01*
X104572000Y-93730000D01*
X105500572Y-94658571D02*
X105357714Y-94587143D01*
X105286286Y-94515714D01*
X105214857Y-94372857D01*
X105214857Y-93944286D01*
X105286286Y-93801429D01*
X105357714Y-93730000D01*
X105500572Y-93658571D01*
X105714857Y-93658571D01*
X105857714Y-93730000D01*
X105929143Y-93801429D01*
X106000572Y-93944286D01*
X106000572Y-94372857D01*
X105929143Y-94515714D01*
X105857714Y-94587143D01*
X105714857Y-94658571D01*
X105500572Y-94658571D01*
X106643429Y-94658571D02*
X106643429Y-93658571D01*
X106643429Y-93944286D02*
X106714857Y-93801429D01*
X106786286Y-93730000D01*
X106929143Y-93658571D01*
X107072000Y-93658571D01*
D12*
X97790000Y-95758000D02*
X96266000Y-95758000D01*
X97028000Y-96520000D02*
X97790000Y-95758000D01*
X97028000Y-96520000D02*
X96266000Y-95758000D01*
D11*
X142621429Y-73275000D02*
X143335715Y-73275000D01*
X142478572Y-73703571D02*
X142978572Y-72203571D01*
X143478572Y-73703571D01*
X143978572Y-73703571D02*
X143978572Y-72203571D01*
X144692858Y-73703571D02*
X144692858Y-72203571D01*
X145550001Y-73703571D01*
X145550001Y-72203571D01*
X147335715Y-73275000D02*
X148050001Y-73275000D01*
X147192858Y-73703571D02*
X147692858Y-72203571D01*
X148192858Y-73703571D01*
X149478572Y-73703571D02*
X148621429Y-73703571D01*
X149050001Y-73703571D02*
X149050001Y-72203571D01*
X148907144Y-72417857D01*
X148764286Y-72560714D01*
X148621429Y-72632143D01*
X117221429Y-73275000D02*
X117935715Y-73275000D01*
X117078572Y-73703571D02*
X117578572Y-72203571D01*
X118078572Y-73703571D01*
X118578572Y-73703571D02*
X118578572Y-72203571D01*
X119292858Y-73703571D02*
X119292858Y-72203571D01*
X120150001Y-73703571D01*
X120150001Y-72203571D01*
X121935715Y-73275000D02*
X122650001Y-73275000D01*
X121792858Y-73703571D02*
X122292858Y-72203571D01*
X122792858Y-73703571D01*
X123578572Y-72203571D02*
X123721429Y-72203571D01*
X123864286Y-72275000D01*
X123935715Y-72346429D01*
X124007144Y-72489286D01*
X124078572Y-72775000D01*
X124078572Y-73132143D01*
X124007144Y-73417857D01*
X123935715Y-73560714D01*
X123864286Y-73632143D01*
X123721429Y-73703571D01*
X123578572Y-73703571D01*
X123435715Y-73632143D01*
X123364286Y-73560714D01*
X123292858Y-73417857D01*
X123221429Y-73132143D01*
X123221429Y-72775000D01*
X123292858Y-72489286D01*
X123364286Y-72346429D01*
X123435715Y-72275000D01*
X123578572Y-72203571D01*
X91678572Y-73703571D02*
X91678572Y-72203571D01*
X92035715Y-72203571D01*
X92250000Y-72275000D01*
X92392858Y-72417857D01*
X92464286Y-72560714D01*
X92535715Y-72846429D01*
X92535715Y-73060714D01*
X92464286Y-73346429D01*
X92392858Y-73489286D01*
X92250000Y-73632143D01*
X92035715Y-73703571D01*
X91678572Y-73703571D01*
X93178572Y-73703571D02*
X93178572Y-72203571D01*
X94178572Y-72203571D02*
X94464286Y-72203571D01*
X94607144Y-72275000D01*
X94750001Y-72417857D01*
X94821429Y-72703571D01*
X94821429Y-73203571D01*
X94750001Y-73489286D01*
X94607144Y-73632143D01*
X94464286Y-73703571D01*
X94178572Y-73703571D01*
X94035715Y-73632143D01*
X93892858Y-73489286D01*
X93821429Y-73203571D01*
X93821429Y-72703571D01*
X93892858Y-72417857D01*
X94035715Y-72275000D01*
X94178572Y-72203571D01*
X96607144Y-73703571D02*
X96607144Y-72203571D01*
X96964287Y-72203571D01*
X97178572Y-72275000D01*
X97321430Y-72417857D01*
X97392858Y-72560714D01*
X97464287Y-72846429D01*
X97464287Y-73060714D01*
X97392858Y-73346429D01*
X97321430Y-73489286D01*
X97178572Y-73632143D01*
X96964287Y-73703571D01*
X96607144Y-73703571D01*
X97964287Y-72203571D02*
X98892858Y-72203571D01*
X98392858Y-72775000D01*
X98607144Y-72775000D01*
X98750001Y-72846429D01*
X98821430Y-72917857D01*
X98892858Y-73060714D01*
X98892858Y-73417857D01*
X98821430Y-73560714D01*
X98750001Y-73632143D01*
X98607144Y-73703571D01*
X98178572Y-73703571D01*
X98035715Y-73632143D01*
X97964287Y-73560714D01*
X66278572Y-73703571D02*
X66278572Y-72203571D01*
X66635715Y-72203571D01*
X66850000Y-72275000D01*
X66992858Y-72417857D01*
X67064286Y-72560714D01*
X67135715Y-72846429D01*
X67135715Y-73060714D01*
X67064286Y-73346429D01*
X66992858Y-73489286D01*
X66850000Y-73632143D01*
X66635715Y-73703571D01*
X66278572Y-73703571D01*
X67778572Y-73703571D02*
X67778572Y-72203571D01*
X68778572Y-72203571D02*
X69064286Y-72203571D01*
X69207144Y-72275000D01*
X69350001Y-72417857D01*
X69421429Y-72703571D01*
X69421429Y-73203571D01*
X69350001Y-73489286D01*
X69207144Y-73632143D01*
X69064286Y-73703571D01*
X68778572Y-73703571D01*
X68635715Y-73632143D01*
X68492858Y-73489286D01*
X68421429Y-73203571D01*
X68421429Y-72703571D01*
X68492858Y-72417857D01*
X68635715Y-72275000D01*
X68778572Y-72203571D01*
X71207144Y-73703571D02*
X71207144Y-72203571D01*
X71564287Y-72203571D01*
X71778572Y-72275000D01*
X71921430Y-72417857D01*
X71992858Y-72560714D01*
X72064287Y-72846429D01*
X72064287Y-73060714D01*
X71992858Y-73346429D01*
X71921430Y-73489286D01*
X71778572Y-73632143D01*
X71564287Y-73703571D01*
X71207144Y-73703571D01*
X72635715Y-72346429D02*
X72707144Y-72275000D01*
X72850001Y-72203571D01*
X73207144Y-72203571D01*
X73350001Y-72275000D01*
X73421430Y-72346429D01*
X73492858Y-72489286D01*
X73492858Y-72632143D01*
X73421430Y-72846429D01*
X72564287Y-73703571D01*
X73492858Y-73703571D01*
X139391429Y-99945000D02*
X140105715Y-99945000D01*
X139248572Y-100373571D02*
X139748572Y-98873571D01*
X140248572Y-100373571D01*
X141391429Y-99373571D02*
X141391429Y-100373571D01*
X140748572Y-99373571D02*
X140748572Y-100159286D01*
X140820000Y-100302143D01*
X140962858Y-100373571D01*
X141177143Y-100373571D01*
X141320000Y-100302143D01*
X141391429Y-100230714D01*
X141891429Y-99373571D02*
X142462858Y-99373571D01*
X142105715Y-98873571D02*
X142105715Y-100159286D01*
X142177143Y-100302143D01*
X142320001Y-100373571D01*
X142462858Y-100373571D01*
X143177144Y-100373571D02*
X143034286Y-100302143D01*
X142962858Y-100230714D01*
X142891429Y-100087857D01*
X142891429Y-99659286D01*
X142962858Y-99516429D01*
X143034286Y-99445000D01*
X143177144Y-99373571D01*
X143391429Y-99373571D01*
X143534286Y-99445000D01*
X143605715Y-99516429D01*
X143677144Y-99659286D01*
X143677144Y-100087857D01*
X143605715Y-100230714D01*
X143534286Y-100302143D01*
X143391429Y-100373571D01*
X143177144Y-100373571D01*
X144962858Y-100373571D02*
X144962858Y-98873571D01*
X144962858Y-100302143D02*
X144820001Y-100373571D01*
X144534287Y-100373571D01*
X144391429Y-100302143D01*
X144320001Y-100230714D01*
X144248572Y-100087857D01*
X144248572Y-99659286D01*
X144320001Y-99516429D01*
X144391429Y-99445000D01*
X144534287Y-99373571D01*
X144820001Y-99373571D01*
X144962858Y-99445000D01*
X145677144Y-100373571D02*
X145677144Y-99373571D01*
X145677144Y-99659286D02*
X145748572Y-99516429D01*
X145820001Y-99445000D01*
X145962858Y-99373571D01*
X146105715Y-99373571D01*
X146605715Y-100373571D02*
X146605715Y-99373571D01*
X146605715Y-98873571D02*
X146534286Y-98945000D01*
X146605715Y-99016429D01*
X146677143Y-98945000D01*
X146605715Y-98873571D01*
X146605715Y-99016429D01*
X147177144Y-99373571D02*
X147534287Y-100373571D01*
X147891429Y-99373571D01*
X149034286Y-100302143D02*
X148891429Y-100373571D01*
X148605715Y-100373571D01*
X148462858Y-100302143D01*
X148391429Y-100159286D01*
X148391429Y-99587857D01*
X148462858Y-99445000D01*
X148605715Y-99373571D01*
X148891429Y-99373571D01*
X149034286Y-99445000D01*
X149105715Y-99587857D01*
X149105715Y-99730714D01*
X148391429Y-99873571D01*
X149748572Y-100373571D02*
X149748572Y-99373571D01*
X149748572Y-99659286D02*
X149820000Y-99516429D01*
X149891429Y-99445000D01*
X150034286Y-99373571D01*
X150177143Y-99373571D01*
X151677143Y-98873571D02*
X152605714Y-98873571D01*
X152105714Y-99445000D01*
X152320000Y-99445000D01*
X152462857Y-99516429D01*
X152534286Y-99587857D01*
X152605714Y-99730714D01*
X152605714Y-100087857D01*
X152534286Y-100230714D01*
X152462857Y-100302143D01*
X152320000Y-100373571D01*
X151891428Y-100373571D01*
X151748571Y-100302143D01*
X151677143Y-100230714D01*
X153105714Y-100373571D02*
X153891428Y-99373571D01*
X153105714Y-99373571D02*
X153891428Y-100373571D01*
X154391428Y-99016429D02*
X154462857Y-98945000D01*
X154605714Y-98873571D01*
X154962857Y-98873571D01*
X155105714Y-98945000D01*
X155177143Y-99016429D01*
X155248571Y-99159286D01*
X155248571Y-99302143D01*
X155177143Y-99516429D01*
X154320000Y-100373571D01*
X155248571Y-100373571D01*
X115261429Y-99945000D02*
X115975715Y-99945000D01*
X115118572Y-100373571D02*
X115618572Y-98873571D01*
X116118572Y-100373571D01*
X117261429Y-99373571D02*
X117261429Y-100373571D01*
X116618572Y-99373571D02*
X116618572Y-100159286D01*
X116690000Y-100302143D01*
X116832858Y-100373571D01*
X117047143Y-100373571D01*
X117190000Y-100302143D01*
X117261429Y-100230714D01*
X117761429Y-99373571D02*
X118332858Y-99373571D01*
X117975715Y-98873571D02*
X117975715Y-100159286D01*
X118047143Y-100302143D01*
X118190001Y-100373571D01*
X118332858Y-100373571D01*
X119047144Y-100373571D02*
X118904286Y-100302143D01*
X118832858Y-100230714D01*
X118761429Y-100087857D01*
X118761429Y-99659286D01*
X118832858Y-99516429D01*
X118904286Y-99445000D01*
X119047144Y-99373571D01*
X119261429Y-99373571D01*
X119404286Y-99445000D01*
X119475715Y-99516429D01*
X119547144Y-99659286D01*
X119547144Y-100087857D01*
X119475715Y-100230714D01*
X119404286Y-100302143D01*
X119261429Y-100373571D01*
X119047144Y-100373571D01*
X120832858Y-100373571D02*
X120832858Y-98873571D01*
X120832858Y-100302143D02*
X120690001Y-100373571D01*
X120404287Y-100373571D01*
X120261429Y-100302143D01*
X120190001Y-100230714D01*
X120118572Y-100087857D01*
X120118572Y-99659286D01*
X120190001Y-99516429D01*
X120261429Y-99445000D01*
X120404287Y-99373571D01*
X120690001Y-99373571D01*
X120832858Y-99445000D01*
X121547144Y-100373571D02*
X121547144Y-99373571D01*
X121547144Y-99659286D02*
X121618572Y-99516429D01*
X121690001Y-99445000D01*
X121832858Y-99373571D01*
X121975715Y-99373571D01*
X122475715Y-100373571D02*
X122475715Y-99373571D01*
X122475715Y-98873571D02*
X122404286Y-98945000D01*
X122475715Y-99016429D01*
X122547143Y-98945000D01*
X122475715Y-98873571D01*
X122475715Y-99016429D01*
X123047144Y-99373571D02*
X123404287Y-100373571D01*
X123761429Y-99373571D01*
X124904286Y-100302143D02*
X124761429Y-100373571D01*
X124475715Y-100373571D01*
X124332858Y-100302143D01*
X124261429Y-100159286D01*
X124261429Y-99587857D01*
X124332858Y-99445000D01*
X124475715Y-99373571D01*
X124761429Y-99373571D01*
X124904286Y-99445000D01*
X124975715Y-99587857D01*
X124975715Y-99730714D01*
X124261429Y-99873571D01*
X125618572Y-100373571D02*
X125618572Y-99373571D01*
X125618572Y-99659286D02*
X125690000Y-99516429D01*
X125761429Y-99445000D01*
X125904286Y-99373571D01*
X126047143Y-99373571D01*
X128404286Y-98873571D02*
X127690000Y-98873571D01*
X127618571Y-99587857D01*
X127690000Y-99516429D01*
X127832857Y-99445000D01*
X128190000Y-99445000D01*
X128332857Y-99516429D01*
X128404286Y-99587857D01*
X128475714Y-99730714D01*
X128475714Y-100087857D01*
X128404286Y-100230714D01*
X128332857Y-100302143D01*
X128190000Y-100373571D01*
X127832857Y-100373571D01*
X127690000Y-100302143D01*
X127618571Y-100230714D01*
X128975714Y-100373571D02*
X129761428Y-99373571D01*
X128975714Y-99373571D02*
X129761428Y-100373571D01*
X130261428Y-99016429D02*
X130332857Y-98945000D01*
X130475714Y-98873571D01*
X130832857Y-98873571D01*
X130975714Y-98945000D01*
X131047143Y-99016429D01*
X131118571Y-99159286D01*
X131118571Y-99302143D01*
X131047143Y-99516429D01*
X130190000Y-100373571D01*
X131118571Y-100373571D01*
X159193571Y-90707856D02*
X159193571Y-89850713D01*
X160693571Y-90279284D02*
X159193571Y-90279284D01*
X160622143Y-88779285D02*
X160693571Y-88922142D01*
X160693571Y-89207856D01*
X160622143Y-89350713D01*
X160479286Y-89422142D01*
X159907857Y-89422142D01*
X159765000Y-89350713D01*
X159693571Y-89207856D01*
X159693571Y-88922142D01*
X159765000Y-88779285D01*
X159907857Y-88707856D01*
X160050714Y-88707856D01*
X160193571Y-89422142D01*
X160622143Y-87493571D02*
X160693571Y-87636428D01*
X160693571Y-87922142D01*
X160622143Y-88064999D01*
X160479286Y-88136428D01*
X159907857Y-88136428D01*
X159765000Y-88064999D01*
X159693571Y-87922142D01*
X159693571Y-87636428D01*
X159765000Y-87493571D01*
X159907857Y-87422142D01*
X160050714Y-87422142D01*
X160193571Y-88136428D01*
X159693571Y-86779285D02*
X160693571Y-86779285D01*
X159836429Y-86779285D02*
X159765000Y-86707857D01*
X159693571Y-86564999D01*
X159693571Y-86350714D01*
X159765000Y-86207857D01*
X159907857Y-86136428D01*
X160693571Y-86136428D01*
X160622143Y-85493571D02*
X160693571Y-85350714D01*
X160693571Y-85064999D01*
X160622143Y-84922142D01*
X160479286Y-84850714D01*
X160407857Y-84850714D01*
X160265000Y-84922142D01*
X160193571Y-85064999D01*
X160193571Y-85279285D01*
X160122143Y-85422142D01*
X159979286Y-85493571D01*
X159907857Y-85493571D01*
X159765000Y-85422142D01*
X159693571Y-85279285D01*
X159693571Y-85064999D01*
X159765000Y-84922142D01*
X159693571Y-84350713D02*
X160693571Y-83993570D01*
X159693571Y-83636428D02*
X160693571Y-83993570D01*
X161050714Y-84136428D01*
X161122143Y-84207856D01*
X161193571Y-84350713D01*
X160122143Y-83064999D02*
X160122143Y-81922142D01*
X159693571Y-81422142D02*
X159693571Y-80850713D01*
X159193571Y-81207856D02*
X160479286Y-81207856D01*
X160622143Y-81136428D01*
X160693571Y-80993570D01*
X160693571Y-80850713D01*
X160693571Y-80136427D02*
X160622143Y-80279285D01*
X160550714Y-80350713D01*
X160407857Y-80422142D01*
X159979286Y-80422142D01*
X159836429Y-80350713D01*
X159765000Y-80279285D01*
X159693571Y-80136427D01*
X159693571Y-79922142D01*
X159765000Y-79779285D01*
X159836429Y-79707856D01*
X159979286Y-79636427D01*
X160407857Y-79636427D01*
X160550714Y-79707856D01*
X160622143Y-79779285D01*
X160693571Y-79922142D01*
X160693571Y-80136427D01*
X160122143Y-78993570D02*
X160122143Y-77850713D01*
X160265000Y-77207856D02*
X160265000Y-76493570D01*
X160693571Y-77350713D02*
X159193571Y-76850713D01*
X160693571Y-76350713D01*
X159693571Y-75207856D02*
X160693571Y-75207856D01*
X159693571Y-75850713D02*
X160479286Y-75850713D01*
X160622143Y-75779285D01*
X160693571Y-75636427D01*
X160693571Y-75422142D01*
X160622143Y-75279285D01*
X160550714Y-75207856D01*
X159693571Y-74707856D02*
X159693571Y-74136427D01*
X159193571Y-74493570D02*
X160479286Y-74493570D01*
X160622143Y-74422142D01*
X160693571Y-74279284D01*
X160693571Y-74136427D01*
X160693571Y-73422141D02*
X160622143Y-73564999D01*
X160550714Y-73636427D01*
X160407857Y-73707856D01*
X159979286Y-73707856D01*
X159836429Y-73636427D01*
X159765000Y-73564999D01*
X159693571Y-73422141D01*
X159693571Y-73207856D01*
X159765000Y-73064999D01*
X159836429Y-72993570D01*
X159979286Y-72922141D01*
X160407857Y-72922141D01*
X160550714Y-72993570D01*
X160622143Y-73064999D01*
X160693571Y-73207856D01*
X160693571Y-73422141D01*
X160693571Y-71636427D02*
X159193571Y-71636427D01*
X160622143Y-71636427D02*
X160693571Y-71779284D01*
X160693571Y-72064998D01*
X160622143Y-72207856D01*
X160550714Y-72279284D01*
X160407857Y-72350713D01*
X159979286Y-72350713D01*
X159836429Y-72279284D01*
X159765000Y-72207856D01*
X159693571Y-72064998D01*
X159693571Y-71779284D01*
X159765000Y-71636427D01*
X160693571Y-70922141D02*
X159693571Y-70922141D01*
X159979286Y-70922141D02*
X159836429Y-70850713D01*
X159765000Y-70779284D01*
X159693571Y-70636427D01*
X159693571Y-70493570D01*
X160693571Y-69993570D02*
X159693571Y-69993570D01*
X159193571Y-69993570D02*
X159265000Y-70064999D01*
X159336429Y-69993570D01*
X159265000Y-69922142D01*
X159193571Y-69993570D01*
X159336429Y-69993570D01*
X159693571Y-69422141D02*
X160693571Y-69064998D01*
X159693571Y-68707856D01*
X160622143Y-67564999D02*
X160693571Y-67707856D01*
X160693571Y-67993570D01*
X160622143Y-68136427D01*
X160479286Y-68207856D01*
X159907857Y-68207856D01*
X159765000Y-68136427D01*
X159693571Y-67993570D01*
X159693571Y-67707856D01*
X159765000Y-67564999D01*
X159907857Y-67493570D01*
X160050714Y-67493570D01*
X160193571Y-68207856D01*
X160693571Y-66850713D02*
X159693571Y-66850713D01*
X159979286Y-66850713D02*
X159836429Y-66779285D01*
X159765000Y-66707856D01*
X159693571Y-66564999D01*
X159693571Y-66422142D01*
X159193571Y-64993571D02*
X160693571Y-64493571D01*
X159193571Y-63993571D01*
X159193571Y-63207857D02*
X159193571Y-63065000D01*
X159265000Y-62922143D01*
X159336429Y-62850714D01*
X159479286Y-62779285D01*
X159765000Y-62707857D01*
X160122143Y-62707857D01*
X160407857Y-62779285D01*
X160550714Y-62850714D01*
X160622143Y-62922143D01*
X160693571Y-63065000D01*
X160693571Y-63207857D01*
X160622143Y-63350714D01*
X160550714Y-63422143D01*
X160407857Y-63493571D01*
X160122143Y-63565000D01*
X159765000Y-63565000D01*
X159479286Y-63493571D01*
X159336429Y-63422143D01*
X159265000Y-63350714D01*
X159193571Y-63207857D01*
X160550714Y-62065000D02*
X160622143Y-61993572D01*
X160693571Y-62065000D01*
X160622143Y-62136429D01*
X160550714Y-62065000D01*
X160693571Y-62065000D01*
X159336429Y-61422143D02*
X159265000Y-61350714D01*
X159193571Y-61207857D01*
X159193571Y-60850714D01*
X159265000Y-60707857D01*
X159336429Y-60636428D01*
X159479286Y-60565000D01*
X159622143Y-60565000D01*
X159836429Y-60636428D01*
X160693571Y-61493571D01*
X160693571Y-60565000D01*
X163243571Y-86529285D02*
X161743571Y-86529285D01*
X161743571Y-86172142D01*
X161815000Y-85957857D01*
X161957857Y-85814999D01*
X162100714Y-85743571D01*
X162386429Y-85672142D01*
X162600714Y-85672142D01*
X162886429Y-85743571D01*
X163029286Y-85814999D01*
X163172143Y-85957857D01*
X163243571Y-86172142D01*
X163243571Y-86529285D01*
X163243571Y-85029285D02*
X162243571Y-85029285D01*
X161743571Y-85029285D02*
X161815000Y-85100714D01*
X161886429Y-85029285D01*
X161815000Y-84957857D01*
X161743571Y-85029285D01*
X161886429Y-85029285D01*
X163172143Y-83672142D02*
X163243571Y-83814999D01*
X163243571Y-84100713D01*
X163172143Y-84243571D01*
X163100714Y-84314999D01*
X162957857Y-84386428D01*
X162529286Y-84386428D01*
X162386429Y-84314999D01*
X162315000Y-84243571D01*
X162243571Y-84100713D01*
X162243571Y-83814999D01*
X162315000Y-83672142D01*
X163243571Y-83029285D02*
X161743571Y-83029285D01*
X162672143Y-82886428D02*
X163243571Y-82457857D01*
X162243571Y-82457857D02*
X162815000Y-83029285D01*
X163243571Y-81814999D02*
X162243571Y-81814999D01*
X161743571Y-81814999D02*
X161815000Y-81886428D01*
X161886429Y-81814999D01*
X161815000Y-81743571D01*
X161743571Y-81814999D01*
X161886429Y-81814999D01*
X162243571Y-81100713D02*
X163243571Y-81100713D01*
X162386429Y-81100713D02*
X162315000Y-81029285D01*
X162243571Y-80886427D01*
X162243571Y-80672142D01*
X162315000Y-80529285D01*
X162457857Y-80457856D01*
X163243571Y-80457856D01*
X163172143Y-79814999D02*
X163243571Y-79672142D01*
X163243571Y-79386427D01*
X163172143Y-79243570D01*
X163029286Y-79172142D01*
X162957857Y-79172142D01*
X162815000Y-79243570D01*
X162743571Y-79386427D01*
X162743571Y-79600713D01*
X162672143Y-79743570D01*
X162529286Y-79814999D01*
X162457857Y-79814999D01*
X162315000Y-79743570D01*
X162243571Y-79600713D01*
X162243571Y-79386427D01*
X162315000Y-79243570D01*
X163243571Y-78314998D02*
X163172143Y-78457856D01*
X163100714Y-78529284D01*
X162957857Y-78600713D01*
X162529286Y-78600713D01*
X162386429Y-78529284D01*
X162315000Y-78457856D01*
X162243571Y-78314998D01*
X162243571Y-78100713D01*
X162315000Y-77957856D01*
X162386429Y-77886427D01*
X162529286Y-77814998D01*
X162957857Y-77814998D01*
X163100714Y-77886427D01*
X163172143Y-77957856D01*
X163243571Y-78100713D01*
X163243571Y-78314998D01*
X162243571Y-77172141D02*
X163243571Y-77172141D01*
X162386429Y-77172141D02*
X162315000Y-77100713D01*
X162243571Y-76957855D01*
X162243571Y-76743570D01*
X162315000Y-76600713D01*
X162457857Y-76529284D01*
X163243571Y-76529284D01*
X163243571Y-73957855D02*
X163243571Y-74672141D01*
X161743571Y-74672141D01*
X163243571Y-72814998D02*
X162457857Y-72814998D01*
X162315000Y-72886427D01*
X162243571Y-73029284D01*
X162243571Y-73314998D01*
X162315000Y-73457855D01*
X163172143Y-72814998D02*
X163243571Y-72957855D01*
X163243571Y-73314998D01*
X163172143Y-73457855D01*
X163029286Y-73529284D01*
X162886429Y-73529284D01*
X162743571Y-73457855D01*
X162672143Y-73314998D01*
X162672143Y-72957855D01*
X162600714Y-72814998D01*
X163243571Y-72100712D02*
X161743571Y-72100712D01*
X162315000Y-72100712D02*
X162243571Y-71957855D01*
X162243571Y-71672141D01*
X162315000Y-71529284D01*
X162386429Y-71457855D01*
X162529286Y-71386426D01*
X162957857Y-71386426D01*
X163100714Y-71457855D01*
X163172143Y-71529284D01*
X163243571Y-71672141D01*
X163243571Y-71957855D01*
X163172143Y-72100712D01*
X161886429Y-69672141D02*
X161815000Y-69600712D01*
X161743571Y-69457855D01*
X161743571Y-69100712D01*
X161815000Y-68957855D01*
X161886429Y-68886426D01*
X162029286Y-68814998D01*
X162172143Y-68814998D01*
X162386429Y-68886426D01*
X163243571Y-69743569D01*
X163243571Y-68814998D01*
X161743571Y-67886427D02*
X161743571Y-67743570D01*
X161815000Y-67600713D01*
X161886429Y-67529284D01*
X162029286Y-67457855D01*
X162315000Y-67386427D01*
X162672143Y-67386427D01*
X162957857Y-67457855D01*
X163100714Y-67529284D01*
X163172143Y-67600713D01*
X163243571Y-67743570D01*
X163243571Y-67886427D01*
X163172143Y-68029284D01*
X163100714Y-68100713D01*
X162957857Y-68172141D01*
X162672143Y-68243570D01*
X162315000Y-68243570D01*
X162029286Y-68172141D01*
X161886429Y-68100713D01*
X161815000Y-68029284D01*
X161743571Y-67886427D01*
X163243571Y-65957856D02*
X163243571Y-66814999D01*
X163243571Y-66386427D02*
X161743571Y-66386427D01*
X161957857Y-66529284D01*
X162100714Y-66672142D01*
X162172143Y-66814999D01*
X162386429Y-65100713D02*
X162315000Y-65243571D01*
X162243571Y-65314999D01*
X162100714Y-65386428D01*
X162029286Y-65386428D01*
X161886429Y-65314999D01*
X161815000Y-65243571D01*
X161743571Y-65100713D01*
X161743571Y-64814999D01*
X161815000Y-64672142D01*
X161886429Y-64600713D01*
X162029286Y-64529285D01*
X162100714Y-64529285D01*
X162243571Y-64600713D01*
X162315000Y-64672142D01*
X162386429Y-64814999D01*
X162386429Y-65100713D01*
X162457857Y-65243571D01*
X162529286Y-65314999D01*
X162672143Y-65386428D01*
X162957857Y-65386428D01*
X163100714Y-65314999D01*
X163172143Y-65243571D01*
X163243571Y-65100713D01*
X163243571Y-64814999D01*
X163172143Y-64672142D01*
X163100714Y-64600713D01*
X162957857Y-64529285D01*
X162672143Y-64529285D01*
X162529286Y-64600713D01*
X162457857Y-64672142D01*
X162386429Y-64814999D01*
D13*
X133350000Y-97536000D02*
X113030000Y-97536000D01*
X113030000Y-97536000D02*
X113030000Y-87884000D01*
X113030000Y-87884000D02*
X133350000Y-87884000D01*
X133350000Y-87884000D02*
X133350000Y-97536000D01*
X130091180Y-85410040D02*
X127088900Y-85410040D01*
X128554480Y-87221060D02*
X130078480Y-85443060D01*
X127030480Y-85445600D02*
X128554480Y-87223600D01*
X154686000Y-87884000D02*
X139446000Y-87884000D01*
X154686000Y-97536000D02*
X139446000Y-97536000D01*
X139446000Y-97536000D02*
X139446000Y-87884000D01*
X154686000Y-87884000D02*
X154686000Y-97536000D01*
X151427180Y-85410040D02*
X148424900Y-85410040D01*
X149890480Y-87221060D02*
X151414480Y-85443060D01*
X148366480Y-85445600D02*
X149890480Y-87223600D01*
X77597000Y-55880000D02*
X77597000Y-71120000D01*
X62357000Y-55880000D02*
X62357000Y-71120000D01*
X64897000Y-55880000D02*
X64897000Y-55118000D01*
X64897000Y-55118000D02*
X75057000Y-55118000D01*
X75057000Y-55118000D02*
X75057000Y-55880000D01*
X62357000Y-66040000D02*
X77597000Y-66040000D01*
X62357000Y-55880000D02*
X77597000Y-55880000D01*
X62357000Y-71120000D02*
X77597000Y-71120000D01*
X102997000Y-55880000D02*
X102997000Y-71120000D01*
X87757000Y-55880000D02*
X87757000Y-71120000D01*
X90297000Y-55880000D02*
X90297000Y-55118000D01*
X90297000Y-55118000D02*
X100457000Y-55118000D01*
X100457000Y-55118000D02*
X100457000Y-55880000D01*
X87757000Y-66040000D02*
X102997000Y-66040000D01*
X87757000Y-55880000D02*
X102997000Y-55880000D01*
X87757000Y-71120000D02*
X102997000Y-71120000D01*
X128397000Y-55880000D02*
X128397000Y-71120000D01*
X113157000Y-55880000D02*
X113157000Y-71120000D01*
X115697000Y-55880000D02*
X115697000Y-55118000D01*
X115697000Y-55118000D02*
X125857000Y-55118000D01*
X125857000Y-55118000D02*
X125857000Y-55880000D01*
X113157000Y-66040000D02*
X128397000Y-66040000D01*
X113157000Y-55880000D02*
X128397000Y-55880000D01*
X113157000Y-71120000D02*
X128397000Y-71120000D01*
X153797000Y-55880000D02*
X153797000Y-71120000D01*
X138557000Y-55880000D02*
X138557000Y-71120000D01*
X141097000Y-55880000D02*
X141097000Y-55118000D01*
X141097000Y-55118000D02*
X151257000Y-55118000D01*
X151257000Y-55118000D02*
X151257000Y-55880000D01*
X138557000Y-66040000D02*
X153797000Y-66040000D01*
X138557000Y-55880000D02*
X153797000Y-55880000D01*
X138557000Y-71120000D02*
X153797000Y-71120000D01*
X53594000Y-94742000D02*
X89154000Y-94742000D01*
X89154000Y-94742000D02*
X89154000Y-76962000D01*
X89154000Y-76962000D02*
X53594000Y-76962000D01*
X53594000Y-76962000D02*
X53594000Y-94742000D01*
D14*
X96012000Y-97028000D02*
X96012000Y-99568000D01*
X96012000Y-99568000D02*
X103632000Y-99568000D01*
X103632000Y-99568000D02*
X103632000Y-97028000D01*
X103632000Y-97028000D02*
X96012000Y-97028000D01*
D15*
X110617000Y-88065429D02*
X110617000Y-89154000D01*
X110544428Y-89371714D01*
X110399285Y-89516857D01*
X110181571Y-89589429D01*
X110036428Y-89589429D01*
X112141000Y-89589429D02*
X111270143Y-89589429D01*
X111705571Y-89589429D02*
X111705571Y-88065429D01*
X111560428Y-88283143D01*
X111415286Y-88428286D01*
X111270143Y-88500857D01*
D16*
X118048435Y-96484924D02*
X117322721Y-96484924D01*
X117685578Y-96484924D02*
X117685578Y-95214924D01*
X117564626Y-95396352D01*
X117443673Y-95517305D01*
X117322721Y-95577781D01*
X118834626Y-95214924D02*
X118955578Y-95214924D01*
X119076530Y-95275400D01*
X119137007Y-95335876D01*
X119197483Y-95456829D01*
X119257959Y-95698733D01*
X119257959Y-96001114D01*
X119197483Y-96243019D01*
X119137007Y-96363971D01*
X119076530Y-96424448D01*
X118955578Y-96484924D01*
X118834626Y-96484924D01*
X118713673Y-96424448D01*
X118653197Y-96363971D01*
X118592721Y-96243019D01*
X118532245Y-96001114D01*
X118532245Y-95698733D01*
X118592721Y-95456829D01*
X118653197Y-95335876D01*
X118713673Y-95275400D01*
X118834626Y-95214924D01*
X117748715Y-89784404D02*
X117990620Y-89784404D01*
X118111572Y-89723928D01*
X118172048Y-89663451D01*
X118293001Y-89482023D01*
X118353477Y-89240118D01*
X118353477Y-88756309D01*
X118293001Y-88635356D01*
X118232525Y-88574880D01*
X118111572Y-88514404D01*
X117869668Y-88514404D01*
X117748715Y-88574880D01*
X117688239Y-88635356D01*
X117627763Y-88756309D01*
X117627763Y-89058690D01*
X117688239Y-89179642D01*
X117748715Y-89240118D01*
X117869668Y-89300594D01*
X118111572Y-89300594D01*
X118232525Y-89240118D01*
X118293001Y-89179642D01*
X118353477Y-89058690D01*
X127927463Y-95335876D02*
X127987939Y-95275400D01*
X128108891Y-95214924D01*
X128411272Y-95214924D01*
X128532225Y-95275400D01*
X128592701Y-95335876D01*
X128653177Y-95456829D01*
X128653177Y-95577781D01*
X128592701Y-95759210D01*
X127866987Y-96484924D01*
X128653177Y-96484924D01*
D15*
X137033000Y-88065429D02*
X137033000Y-89154000D01*
X136960428Y-89371714D01*
X136815285Y-89516857D01*
X136597571Y-89589429D01*
X136452428Y-89589429D01*
X137686143Y-88210571D02*
X137758714Y-88138000D01*
X137903857Y-88065429D01*
X138266714Y-88065429D01*
X138411857Y-88138000D01*
X138484428Y-88210571D01*
X138557000Y-88355714D01*
X138557000Y-88500857D01*
X138484428Y-88718571D01*
X137613571Y-89589429D01*
X138557000Y-89589429D01*
D16*
X144704405Y-95253024D02*
X144462500Y-95253024D01*
X144341548Y-95313500D01*
X144281071Y-95373976D01*
X144160119Y-95555405D01*
X144099643Y-95797310D01*
X144099643Y-96281119D01*
X144160119Y-96402071D01*
X144220595Y-96462548D01*
X144341548Y-96523024D01*
X144583452Y-96523024D01*
X144704405Y-96462548D01*
X144764881Y-96402071D01*
X144825357Y-96281119D01*
X144825357Y-95978738D01*
X144764881Y-95857786D01*
X144704405Y-95797310D01*
X144583452Y-95736833D01*
X144341548Y-95736833D01*
X144220595Y-95797310D01*
X144160119Y-95857786D01*
X144099643Y-95978738D01*
X144701381Y-88522024D02*
X144096619Y-88522024D01*
X144036143Y-89126786D01*
X144096619Y-89066310D01*
X144217571Y-89005833D01*
X144519952Y-89005833D01*
X144640905Y-89066310D01*
X144701381Y-89126786D01*
X144761857Y-89247738D01*
X144761857Y-89550119D01*
X144701381Y-89671071D01*
X144640905Y-89731548D01*
X144519952Y-89792024D01*
X144217571Y-89792024D01*
X144096619Y-89731548D01*
X144036143Y-89671071D01*
X149263463Y-95335876D02*
X149323939Y-95275400D01*
X149444891Y-95214924D01*
X149747272Y-95214924D01*
X149868225Y-95275400D01*
X149928701Y-95335876D01*
X149989177Y-95456829D01*
X149989177Y-95577781D01*
X149928701Y-95759210D01*
X149202987Y-96484924D01*
X149989177Y-96484924D01*
D15*
X59817000Y-65078429D02*
X59817000Y-66167000D01*
X59744428Y-66384714D01*
X59599285Y-66529857D01*
X59381571Y-66602429D01*
X59236428Y-66602429D01*
X60397571Y-65078429D02*
X61341000Y-65078429D01*
X60833000Y-65659000D01*
X61050714Y-65659000D01*
X61195857Y-65731571D01*
X61268428Y-65804143D01*
X61341000Y-65949286D01*
X61341000Y-66312143D01*
X61268428Y-66457286D01*
X61195857Y-66529857D01*
X61050714Y-66602429D01*
X60615286Y-66602429D01*
X60470143Y-66529857D01*
X60397571Y-66457286D01*
X85217000Y-65078429D02*
X85217000Y-66167000D01*
X85144428Y-66384714D01*
X84999285Y-66529857D01*
X84781571Y-66602429D01*
X84636428Y-66602429D01*
X86595857Y-65586429D02*
X86595857Y-66602429D01*
X86233000Y-65005857D02*
X85870143Y-66094429D01*
X86813571Y-66094429D01*
X110617000Y-65078429D02*
X110617000Y-66167000D01*
X110544428Y-66384714D01*
X110399285Y-66529857D01*
X110181571Y-66602429D01*
X110036428Y-66602429D01*
X112068428Y-65078429D02*
X111342714Y-65078429D01*
X111270143Y-65804143D01*
X111342714Y-65731571D01*
X111487857Y-65659000D01*
X111850714Y-65659000D01*
X111995857Y-65731571D01*
X112068428Y-65804143D01*
X112141000Y-65949286D01*
X112141000Y-66312143D01*
X112068428Y-66457286D01*
X111995857Y-66529857D01*
X111850714Y-66602429D01*
X111487857Y-66602429D01*
X111342714Y-66529857D01*
X111270143Y-66457286D01*
X136017000Y-65078429D02*
X136017000Y-66167000D01*
X135944428Y-66384714D01*
X135799285Y-66529857D01*
X135581571Y-66602429D01*
X135436428Y-66602429D01*
X137395857Y-65078429D02*
X137105571Y-65078429D01*
X136960428Y-65151000D01*
X136887857Y-65223571D01*
X136742714Y-65441286D01*
X136670143Y-65731571D01*
X136670143Y-66312143D01*
X136742714Y-66457286D01*
X136815286Y-66529857D01*
X136960428Y-66602429D01*
X137250714Y-66602429D01*
X137395857Y-66529857D01*
X137468428Y-66457286D01*
X137541000Y-66312143D01*
X137541000Y-65949286D01*
X137468428Y-65804143D01*
X137395857Y-65731571D01*
X137250714Y-65659000D01*
X136960428Y-65659000D01*
X136815286Y-65731571D01*
X136742714Y-65804143D01*
X136670143Y-65949286D01*
D17*
X90003381Y-86740905D02*
X90812905Y-86740905D01*
X90908143Y-86693286D01*
X90955762Y-86645667D01*
X91003381Y-86550429D01*
X91003381Y-86359952D01*
X90955762Y-86264714D01*
X90908143Y-86217095D01*
X90812905Y-86169476D01*
X90003381Y-86169476D01*
X91003381Y-85169476D02*
X91003381Y-85740905D01*
X91003381Y-85455191D02*
X90003381Y-85455191D01*
X90146238Y-85550429D01*
X90241476Y-85645667D01*
X90289095Y-85740905D01*
X65238381Y-90169524D02*
X65238381Y-89598095D01*
X66238381Y-89883810D02*
X65238381Y-89883810D01*
X65714571Y-89264762D02*
X65714571Y-88931428D01*
X66238381Y-88788571D02*
X66238381Y-89264762D01*
X65238381Y-89264762D01*
X65238381Y-88788571D01*
X65714571Y-88360000D02*
X65714571Y-88026666D01*
X66238381Y-87883809D02*
X66238381Y-88360000D01*
X65238381Y-88360000D01*
X65238381Y-87883809D01*
X66238381Y-87455238D02*
X65238381Y-87455238D01*
X66238381Y-86883809D01*
X65238381Y-86883809D01*
X66190762Y-86455238D02*
X66238381Y-86312381D01*
X66238381Y-86074285D01*
X66190762Y-85979047D01*
X66143143Y-85931428D01*
X66047905Y-85883809D01*
X65952667Y-85883809D01*
X65857429Y-85931428D01*
X65809810Y-85979047D01*
X65762190Y-86074285D01*
X65714571Y-86264762D01*
X65666952Y-86360000D01*
X65619333Y-86407619D01*
X65524095Y-86455238D01*
X65428857Y-86455238D01*
X65333619Y-86407619D01*
X65286000Y-86360000D01*
X65238381Y-86264762D01*
X65238381Y-86026666D01*
X65286000Y-85883809D01*
X65762190Y-85264762D02*
X66238381Y-85264762D01*
X65238381Y-85598095D02*
X65762190Y-85264762D01*
X65238381Y-84931428D01*
X65238381Y-84693333D02*
X65238381Y-84074285D01*
X65619333Y-84407619D01*
X65619333Y-84264761D01*
X65666952Y-84169523D01*
X65714571Y-84121904D01*
X65809810Y-84074285D01*
X66047905Y-84074285D01*
X66143143Y-84121904D01*
X66190762Y-84169523D01*
X66238381Y-84264761D01*
X66238381Y-84550476D01*
X66190762Y-84645714D01*
X66143143Y-84693333D01*
X66143143Y-83645714D02*
X66190762Y-83598095D01*
X66238381Y-83645714D01*
X66190762Y-83693333D01*
X66143143Y-83645714D01*
X66238381Y-83645714D01*
X66238381Y-82645714D02*
X66238381Y-83217143D01*
X66238381Y-82931429D02*
X65238381Y-82931429D01*
X65381238Y-83026667D01*
X65476476Y-83121905D01*
X65524095Y-83217143D01*
X94408667Y-97750381D02*
X94408667Y-98464667D01*
X94361047Y-98607524D01*
X94265809Y-98702762D01*
X94122952Y-98750381D01*
X94027714Y-98750381D01*
X94789619Y-97750381D02*
X95456286Y-97750381D01*
X95027714Y-98750381D01*
M02*
