M48
;DRILL file {KiCad 4.0.7-e2-6376~58~ubuntu16.04.1} date Wed Jan 17 11:07:34 2018
;FORMAT={-:-/ absolute / inch / decimal}
FMAT,2
INCH,TZ
T1C0.035
T2C0.040
T3C0.079
T4C0.120
%
G90
G05
M72
T1
X2.655Y-2.5
X2.755Y-2.5
X3.655Y-2.5
X3.755Y-2.5
X4.655Y-2.5
X4.755Y-2.5
X5.655Y-2.5
X5.755Y-2.5
T2
X2.16Y-3.08
X2.16Y-3.68
X2.26Y-3.08
X2.26Y-3.18
X2.26Y-3.68
X2.36Y-3.08
X2.36Y-3.68
X2.46Y-3.08
X2.46Y-3.18
X2.46Y-3.68
X2.56Y-3.08
X2.56Y-3.18
X2.56Y-3.68
X2.66Y-3.08
X2.66Y-3.18
X2.66Y-3.68
X2.76Y-3.08
X2.76Y-3.28
X2.76Y-3.38
X2.76Y-3.68
X2.86Y-3.08
X2.86Y-3.28
X2.86Y-3.38
X2.86Y-3.68
X2.96Y-3.08
X2.96Y-3.28
X2.96Y-3.38
X2.96Y-3.68
X3.06Y-3.08
X3.06Y-3.28
X3.06Y-3.38
X3.06Y-3.68
X3.16Y-3.08
X3.16Y-3.28
X3.16Y-3.38
X3.16Y-3.68
X3.26Y-3.08
X3.26Y-3.28
X3.26Y-3.38
X3.26Y-3.68
X3.36Y-3.08
X3.36Y-3.28
X3.36Y-3.38
X3.36Y-3.68
X3.46Y-3.08
X3.46Y-3.18
X3.46Y-3.28
X3.46Y-3.38
X3.46Y-3.48
X3.46Y-3.58
X3.46Y-3.68
X3.83Y-3.87
X3.93Y-3.87
X4.03Y-3.87
X4.65Y-3.6
X4.65Y-3.7
X4.75Y-3.6
X4.75Y-3.7
X4.85Y-3.6
X4.85Y-3.7
X4.95Y-3.6
X4.95Y-3.7
X5.05Y-3.6
X5.05Y-3.7
X5.69Y-3.6
X5.69Y-3.7
X5.79Y-3.6
X5.79Y-3.7
X5.89Y-3.6
X5.89Y-3.7
T3
X2.555Y-2.3
X2.555Y-2.7
X2.955Y-2.3
X3.555Y-2.3
X3.555Y-2.7
X3.955Y-2.3
X4.555Y-2.3
X4.555Y-2.7
X4.955Y-2.3
X5.555Y-2.3
X5.555Y-2.7
X5.955Y-2.3
T4
X2.125Y-2.125
X2.125Y-3.875
X6.375Y-2.125
X6.375Y-3.875
T0
M30
