G04 #@! TF.FileFunction,Copper,L2,Bot,Signal*
%FSLAX46Y46*%
G04 Gerber Fmt 4.6, Leading zero omitted, Abs format (unit mm)*
G04 Created by KiCad (PCBNEW 4.0.7-e2-6376~58~ubuntu16.04.1) date Wed Jan 17 11:07:31 2018*
%MOMM*%
%LPD*%
G01*
G04 APERTURE LIST*
%ADD10C,0.100000*%
%ADD11R,1.778000X1.778000*%
%ADD12C,1.778000*%
%ADD13C,3.048000*%
%ADD14R,1.651000X1.651000*%
%ADD15C,1.651000*%
%ADD16C,3.302000*%
%ADD17C,1.524000*%
%ADD18C,0.304800*%
G04 APERTURE END LIST*
D10*
D11*
X128270000Y-91440000D03*
D12*
X128270000Y-93980000D03*
X125730000Y-91440000D03*
X125730000Y-93980000D03*
X123190000Y-91440000D03*
X123190000Y-93980000D03*
X120650000Y-91440000D03*
X120650000Y-93980000D03*
X118110000Y-91440000D03*
X118110000Y-93980000D03*
D11*
X149606000Y-91440000D03*
D12*
X149606000Y-93980000D03*
X147066000Y-91440000D03*
X147066000Y-93980000D03*
X144526000Y-91440000D03*
X144526000Y-93980000D03*
D13*
X64897000Y-58420000D03*
X75057000Y-58420000D03*
D14*
X69977000Y-63500000D03*
D15*
X67437000Y-63500000D03*
D13*
X64897000Y-68580000D03*
X90297000Y-58420000D03*
X100457000Y-58420000D03*
D14*
X95377000Y-63500000D03*
D15*
X92837000Y-63500000D03*
D13*
X90297000Y-68580000D03*
X115697000Y-58420000D03*
X125857000Y-58420000D03*
D14*
X120777000Y-63500000D03*
D15*
X118237000Y-63500000D03*
D13*
X115697000Y-68580000D03*
X141097000Y-58420000D03*
X151257000Y-58420000D03*
D14*
X146177000Y-63500000D03*
D15*
X143637000Y-63500000D03*
D13*
X141097000Y-68580000D03*
D16*
X53975000Y-53975000D03*
X161925000Y-53975000D03*
X53975000Y-98425000D03*
X161925000Y-98425000D03*
D17*
X54864000Y-93472000D03*
X57404000Y-93472000D03*
X59944000Y-93472000D03*
X62484000Y-93472000D03*
X65024000Y-93472000D03*
X67564000Y-93472000D03*
X70104000Y-93472000D03*
X72644000Y-93472000D03*
X75184000Y-93472000D03*
X77724000Y-93472000D03*
X80264000Y-93472000D03*
X82804000Y-93472000D03*
X85344000Y-93472000D03*
X87884000Y-93472000D03*
X87884000Y-90932000D03*
X87884000Y-88392000D03*
X87884000Y-85852000D03*
X87884000Y-83312000D03*
X87884000Y-80772000D03*
X87884000Y-78232000D03*
X85344000Y-78232000D03*
X82804000Y-78232000D03*
X80264000Y-78232000D03*
X77724000Y-78232000D03*
X75184000Y-78232000D03*
X72644000Y-78232000D03*
X70104000Y-78232000D03*
X67564000Y-78232000D03*
X65024000Y-78232000D03*
X62484000Y-78232000D03*
X59944000Y-78232000D03*
X57404000Y-78232000D03*
X54864000Y-78232000D03*
X70104000Y-85852000D03*
X72644000Y-85852000D03*
X75184000Y-85852000D03*
X77724000Y-85852000D03*
X80264000Y-85852000D03*
X82804000Y-85852000D03*
X85344000Y-85852000D03*
X85344000Y-83312000D03*
X82804000Y-83312000D03*
X80264000Y-83312000D03*
X77724000Y-83312000D03*
X75184000Y-83312000D03*
X72644000Y-83312000D03*
X70104000Y-83312000D03*
X67564000Y-80772000D03*
X65024000Y-80772000D03*
X62484000Y-80772000D03*
X57404000Y-80772000D03*
D14*
X97282000Y-98298000D03*
D15*
X99822000Y-98298000D03*
X102362000Y-98298000D03*
D18*
X143637000Y-78613000D02*
X143637000Y-63500000D01*
X128270000Y-93980000D02*
X143637000Y-78613000D01*
X56336800Y-91999200D02*
X54864000Y-93472000D01*
X56336800Y-74529100D02*
X56336800Y-91999200D01*
X67365900Y-63500000D02*
X56336800Y-74529100D01*
X67437000Y-63500000D02*
X67365900Y-63500000D01*
X121920000Y-92710000D02*
X123190000Y-93980000D01*
X102362000Y-92710000D02*
X121920000Y-92710000D01*
X87884000Y-78232000D02*
X102362000Y-92710000D01*
X148411900Y-91813300D02*
X148411900Y-91440000D01*
X147591100Y-92634100D02*
X148411900Y-91813300D01*
X141906400Y-92634100D02*
X147591100Y-92634100D01*
X135092700Y-99447800D02*
X141906400Y-92634100D01*
X101882600Y-99447800D02*
X135092700Y-99447800D01*
X101092000Y-98657200D02*
X101882600Y-99447800D01*
X101092000Y-97968200D02*
X101092000Y-98657200D01*
X97718900Y-94595100D02*
X101092000Y-97968200D01*
X76307100Y-94595100D02*
X97718900Y-94595100D01*
X75184000Y-93472000D02*
X76307100Y-94595100D01*
X149606000Y-91440000D02*
X148411900Y-91440000D01*
X69977000Y-74279300D02*
X69977000Y-63500000D01*
X66294000Y-77962300D02*
X69977000Y-74279300D01*
X66294000Y-89662000D02*
X66294000Y-77962300D01*
X62484000Y-93472000D02*
X66294000Y-89662000D01*
X94246400Y-63782800D02*
X94246400Y-63500000D01*
X93398600Y-64630600D02*
X94246400Y-63782800D01*
X87234900Y-64630600D02*
X93398600Y-64630600D01*
X73752200Y-78113300D02*
X87234900Y-64630600D01*
X73752200Y-86291400D02*
X73752200Y-78113300D01*
X72777100Y-87266500D02*
X73752200Y-86291400D01*
X71229500Y-87266500D02*
X72777100Y-87266500D01*
X65024000Y-93472000D02*
X71229500Y-87266500D01*
X95377000Y-63500000D02*
X94246400Y-63500000D01*
X120777000Y-63500000D02*
X119646400Y-63500000D01*
X98945400Y-64630600D02*
X85344000Y-78232000D01*
X118798600Y-64630600D02*
X98945400Y-64630600D01*
X119646400Y-63782800D02*
X118798600Y-64630600D01*
X119646400Y-63500000D02*
X119646400Y-63782800D01*
X86614000Y-82042000D02*
X82804000Y-78232000D01*
X88180700Y-82042000D02*
X86614000Y-82042000D01*
X102362000Y-96223300D02*
X88180700Y-82042000D01*
X102362000Y-98298000D02*
X102362000Y-96223300D01*
X61214000Y-79502000D02*
X59944000Y-78232000D01*
X61214000Y-93762600D02*
X61214000Y-79502000D01*
X63105900Y-95654500D02*
X61214000Y-93762600D01*
X97178500Y-95654500D02*
X63105900Y-95654500D01*
X99822000Y-98298000D02*
X97178500Y-95654500D01*
M02*
